# xmcd
#
# Track frame offsets: 
#        150
#        16822
#        32468
#        53463
#        69503
#        84744
#        100902
#        122827
#        138633
#        157114
#        172449
#
# Disc length: 2591 seconds
#
# Revision: 2
# Processed by: cddbd v1.5.2PL0 Copyright (c) Steve Scherf et al.
# Submitted via: ExactAudioCopy v0.99pb2
#
DISCID=930a1d0b
DTITLE=Sean Costello - We Can Get Together [2008]
DYEAR=2008
DGENRE=Blues
TTITLE0=Anytime You Want
TTITLE1=Same Old Game
TTITLE2=Can't Let Go
TTITLE3=Told Me a Lie
TTITLE4=Hard Luck Woman
TTITLE5=How in the Devil
TTITLE6=Have You No Shame
TTITLE7=Going Home
TTITLE8=All This Time
TTITLE9=Feel Like I Ain't Got a Home
TTITLE10=Little Birds
EXTD=
EXTT0=
EXTT1=
EXTT2=
EXTT3=
EXTT4=
EXTT5=
EXTT6=
EXTT7=
EXTT8=
EXTT9=
EXTT10=
PLAYORDER=
